<?xml version="1.0" standalone="no"?>
<!DOCTYPE svg PUBLIC "-//W3C//DTD SVG 20010904//EN"
 "http://www.w3.org/TR/2001/REC-SVG-20010904/DTD/svg10.dtd">
<svg version="1.0" xmlns="http://www.w3.org/2000/svg"
 width="20.000000pt" height="15.000000pt" viewBox="0 0 120.000000 102.000000"
 preserveAspectRatio="xMidYMid meet">

<g transform="translate(0.000000,102.000000) scale(0.100000,-0.100000)"
fill="#FFFFFF" stroke="none">
<path d="M324 931 c-80 -8 -115 -26 -141 -74 -15 -27 -18 -59 -18 -217 0 -164
2 -189 19 -216 24 -40 63 -63 120 -70 l45 -7 3 -70 c2 -53 7 -72 20 -81 15 -9
30 2 96 67 l78 78 136 8 c74 5 144 13 154 19 70 37 90 123 80 336 -10 217 -22
226 -318 231 -112 2 -235 0 -274 -4z m274 -161 c1 -14 -15 -90 -35 -170 -33
-126 -41 -145 -58 -145 -13 0 -21 8 -23 21 -3 19 63 297 75 317 10 17 38 1 41
-23z m-138 -70 c0 -9 -18 -30 -40 -45 -22 -15 -40 -29 -40 -31 0 -2 18 -16 40
-30 40 -27 52 -57 26 -67 -18 -7 -146 79 -146 98 0 19 128 105 146 98 8 -3 14
-13 14 -23z m263 -22 c31 -21 57 -45 57 -53 0 -19 -128 -105 -146 -98 -26 10
-14 40 26 68 22 15 40 29 40 30 0 1 -18 15 -40 30 -39 27 -52 59 -27 68 14 5
16 4 90 -45z"/>
<path d="M984 808 c-4 -5 -6 -99 -5 -209 2 -218 -5 -255 -56 -278 -14 -6 -96
-16 -181 -22 -86 -5 -161 -14 -166 -19 -21 -21 15 -40 76 -40 l60 0 77 -75
c43 -41 85 -75 94 -75 25 0 37 32 37 99 l0 61 38 0 c44 0 94 28 119 66 14 23
19 54 22 171 4 192 -3 245 -40 287 -31 36 -65 51 -75 34z"/>
</g>
</svg>
